<svg width="94" height="65" viewBox="0 0 94 65" fill="none" xmlns="http://www.w3.org/2000/svg">
<g clip-path="url(#clip0_2_412)">
<path d="M47.7745 36.0242C46.5065 34.8763 46.4309 33.4168 46.5357 32.0631C46.7066 30.1822 47.0807 28.2991 47.6353 26.5219C50.4049 18.4019 55.8535 12.5404 63.4647 8.71524C65.4033 7.74961 67.5121 7.04555 69.7743 6.1484C68.1783 4.52507 65.77 4.08315 64.0309 2.49721C64.9224 2.00921 65.6672 2.3247 66.2916 2.56961C68.8496 3.58452 71.4201 4.64716 73.9553 5.77003C75.169 6.32005 75.4266 6.91587 74.7927 7.99968C73.5021 10.2753 71.6428 11.9343 69.25 12.9166C69.1546 12.9415 68.9741 12.8357 68.6857 12.707C68.6739 10.5167 71.4218 10.3087 71.9141 8.29277C68.4235 8.38869 65.4254 9.7842 62.5976 11.4413C59.6391 13.1835 56.8986 15.1748 54.6791 17.7951C52.4948 20.3552 50.9599 23.2558 49.6305 26.3576C48.2409 29.4242 47.7017 32.6256 47.7745 36.0242Z" fill="black"/>
</g>
<path d="M21.6332 42.5381C20.9839 42.5973 20.38 42.7894 19.9376 43.3088C19.7654 43.5214 19.695 44.0481 19.7129 44.3606C19.7389 44.8652 20.235 45.271 20.637 45.579C20.9682 45.8256 21.7758 46.2616 21.6936 46.7761C20.9543 47.7457 20.5049 46.8006 19.8516 47.0638C19.7306 47.1094 19.5841 47.2386 19.5579 47.3461C19.4379 47.9558 19.6028 48.1151 20.6181 48.3632C21.0481 48.4677 21.7099 48.3847 22.0503 48.1634C22.5244 47.8607 22.9182 47.3644 22.9553 46.705C22.9968 45.8176 22.2509 45.2988 21.7665 44.9052C21.6602 44.819 21.0425 44.4948 21.0731 44.1593C21.1047 43.7759 21.4907 43.6755 22.147 43.8685C22.3849 43.9812 22.9285 44.412 23.1722 44.2248C23.2936 44.1551 23.5623 43.9204 23.5325 43.6077C23.4927 43.1869 23.0308 42.8777 22.5546 42.6763C22.3166 42.5756 21.6934 42.5273 21.6332 42.5381ZM26.2592 42.6293C25.8741 42.6817 25.6795 42.8099 25.3873 43.0202C24.9243 43.3711 24.8617 43.5019 24.5773 43.9284C24.034 44.6978 23.8748 46.075 24.4934 46.9633C24.8342 47.3301 25.5225 47.7278 26.1332 47.7998C26.8634 47.8983 27.4193 47.7052 27.8812 47.4142C28.6844 46.854 29.2545 45.941 29.1412 44.9906C29.1235 43.454 28.005 42.3517 26.2592 42.6293ZM25.3941 45.7209C25.289 44.9626 25.8869 43.8582 26.5371 43.751C27.3801 43.6116 28.0822 44.5257 27.8463 45.5292C27.7277 46.067 27.2028 46.5127 26.8288 46.6133C26.0329 46.8017 25.4785 46.3106 25.3941 45.7209ZM31.2571 39.8234C30.4363 40.0592 30.494 41.3926 30.3904 42.3868C30.242 43.8241 30.077 44.8891 29.8799 46.3615C29.8085 46.9362 29.4058 48.4885 29.8093 48.7245C30.1529 48.9474 30.6757 48.6096 30.8272 48.2285C30.9282 47.9785 31.0669 47.033 31.1097 46.6858C31.3005 44.9252 31.523 43.3813 31.6912 41.5482C31.7651 40.8416 32.1019 39.588 31.2571 39.8234ZM33.5636 43.3735C32.5208 43.305 32.4073 44.1909 32.3411 45.1138C32.322 45.4735 32.2936 46.3011 32.3336 46.7099C32.424 47.5999 33.0034 48.0434 33.6482 48.2121C35.4062 48.5349 36.1069 47.6965 36.5175 46.3484C36.6712 45.8593 36.7538 45.3208 36.7753 44.8412C36.7987 44.2655 36.7945 43.2572 36.4506 43.0464C36.2373 42.9102 35.647 43.0186 35.5439 43.3766C35.4402 43.7706 35.505 44.7441 35.4466 45.271C35.3736 45.9297 35.0278 47.0271 34.5465 47.0896C33.1486 47.3741 33.6083 45.3668 33.723 44.4209C33.7783 44.0499 33.8835 43.5839 33.5636 43.3735ZM40.5043 43.0424C40.3884 42.2239 40.6108 41.9042 40.7073 41.27C40.8236 40.8522 40.9017 40.5417 40.3011 40.5659C39.3524 40.5952 39.4327 41.3889 39.311 42.0826C39.2576 42.3576 39.1834 43.0763 38.9766 43.2163C38.782 43.3445 37.9544 43.3161 37.7013 43.3711C37.4594 43.4624 37.2507 43.6983 37.2103 43.9256C37.1462 44.1283 37.2229 44.5019 37.4722 44.6389C37.8169 44.8137 38.664 44.4583 38.9218 44.7755C38.8601 45.4704 38.8372 46.0221 38.7562 46.4766C38.74 46.6923 38.578 47.6013 38.5378 47.8165C38.51 48.008 38.2257 49.0346 38.2939 49.228C38.3746 49.3976 38.7563 49.5131 39.021 49.4824C39.6225 49.4102 39.7208 48.0799 39.8128 47.6736C39.8536 47.4344 39.9918 46.5129 40.0205 46.2734C40.0622 45.9862 40.1729 44.6321 40.4046 44.4447C40.6244 44.257 41.6065 44.3604 41.9822 44.1757C42.2368 44.0487 42.3876 43.7036 42.322 43.3783C42.2132 42.812 40.7868 43.324 40.5043 43.0424ZM44.0528 41.5641C43.7274 41.6297 43.4326 41.9719 43.4615 42.3325C43.5193 43.0538 44.8071 42.8752 44.8095 42.1431C44.806 41.7109 44.4744 41.4884 44.0528 41.5641ZM43.9046 43.6015C43.3277 43.6382 43.1348 44.2945 43.0387 44.9047C42.9271 45.6947 42.8021 46.5564 42.6898 47.3823C42.6205 47.849 42.5031 48.3268 42.703 48.5348C42.9851 48.8404 43.7337 48.6151 43.9082 48.2825C44.0332 48.0329 44.0105 47.3604 44.043 46.9289C44.0941 46.1618 44.2276 45.4803 44.373 44.799C44.4512 44.4885 44.5651 44.1907 44.5322 44.034C44.4783 43.7209 44.073 43.5809 43.9046 43.6015ZM47.2668 43.0437C46.8817 43.0962 46.6872 43.2243 46.395 43.4346C45.932 43.7856 45.8694 43.9163 45.5849 44.3428C45.0416 45.1123 44.8824 46.4894 45.501 47.3778C45.8419 47.7445 46.5302 48.1422 47.1408 48.2143C47.871 48.3127 48.427 48.1196 48.8888 47.8287C49.692 47.2684 50.2621 46.3555 50.1488 45.405C50.1311 43.8684 49.0127 42.7661 47.2668 43.0437ZM46.4017 46.1353C46.2966 45.3771 46.8945 44.2726 47.5448 44.1654C48.3877 44.026 49.0898 44.9401 48.854 45.9436C48.7353 46.4814 48.2104 46.9271 47.8364 47.0277C47.0405 47.2161 46.4861 46.7251 46.4017 46.1353ZM52.3888 45.5092C52.2482 44.7263 52.6977 43.2349 51.7343 43.3959C51.1803 43.493 51.1995 44.3456 51.162 45.0289C51.1092 45.8801 50.9748 46.6096 50.8743 47.4477C50.7754 48.2019 50.616 48.9789 51.4834 48.816C51.8085 48.7624 52.225 47.7264 52.4361 47.3705C52.8078 46.7777 52.7236 46.7881 53.3391 46.0081C53.5857 45.6769 53.8347 45.2257 54.2075 45.185C54.2689 45.7264 54.2023 46.0611 54.1189 46.6356C54.0233 47.2218 53.9508 47.8565 53.9752 48.4451C54.2426 48.8825 55.0622 48.7066 55.2263 48.3017C55.2769 48.1707 55.2345 47.8818 55.2388 47.6659C55.2681 46.7903 55.595 45.4285 55.5393 44.5992C55.5109 44.2146 55.3277 43.7669 55.1854 43.68C54.7236 43.3589 54.2493 43.6736 53.9329 43.8954C53.5188 44.1993 53.1753 44.5766 52.9036 44.9673C52.7676 45.1686 52.6088 45.3095 52.3888 45.5092ZM61.8673 46.4884C62.231 46.3035 62.6848 46.4205 63.1423 46.3455C63.5759 46.27 63.6764 45.4318 63.1401 45.2412C62.5438 45.0494 62.3358 45.2494 61.9549 45.0858C61.7691 44.7701 61.942 43.3092 62.0211 42.9507C62.1526 42.3652 62.3546 41.253 62.9185 41.2641C63.2544 41.2707 63.3297 41.7163 63.4329 41.9584C63.5361 42.2004 63.637 42.5625 63.8647 42.579C64.139 42.6684 64.5488 42.5805 64.6517 42.2345C64.7522 42.0084 64.7146 41.4796 64.4839 41.0069C64.1725 40.3646 63.6413 39.9101 62.81 40.0737C61.9546 40.2369 61.4983 40.852 61.1216 41.6967C60.7828 42.4462 60.674 43.0922 60.5598 44.0141C60.5188 44.2653 60.5806 44.7827 60.4698 44.9245C60.3343 45.1019 60.4677 45.0325 60.1315 45.0379C59.8193 45.0437 59.4679 45.2168 59.4142 45.5038C59.3756 45.6351 59.3243 45.8021 59.4887 45.9854C59.9003 46.4136 59.8691 46.1729 60.4541 46.3285C60.6084 47.0276 60.3685 48.2351 60.5237 48.8863C60.6239 49.2844 61.499 49.3377 61.6764 48.8611C61.8802 48.265 61.7049 46.8092 61.8673 46.4884ZM66.517 43.4235C66.1319 43.4759 65.9373 43.6041 65.6451 43.8144C65.1821 44.1653 65.1195 44.2961 64.8351 44.7226C64.2918 45.492 64.1326 46.8691 64.7512 47.7575C65.092 48.1243 65.7803 48.5219 66.391 48.594C67.1212 48.6924 67.6771 48.4993 68.139 48.2084C68.9422 47.6481 69.5123 46.7352 69.399 45.7848C69.3813 44.2481 68.2628 43.1459 66.517 43.4235ZM65.6519 46.515C65.5468 45.7568 66.1447 44.6524 66.7949 44.5452C67.6379 44.4058 68.34 45.3198 68.1041 46.3233C67.9855 46.8611 67.4606 47.3068 67.0865 47.4075C66.2907 47.5958 65.7363 47.1048 65.6519 46.515ZM71.6373 43.5365C71.5317 43.4144 71.3412 43.3386 71.161 43.3471C70.5126 43.3583 70.5281 43.7907 70.4026 44.6764C70.2755 45.646 70.2075 47.265 70.1041 48.2472C70.0632 48.4984 70.0097 48.7734 70.0549 48.9183C70.112 49.0635 70.3611 49.2124 70.5409 49.228C70.9963 49.261 71.2247 49.2415 71.3528 48.8359C71.5067 48.3348 71.5214 46.9789 71.5685 46.4157C71.5726 46.2117 72.3993 45.6759 72.894 45.5417C73.0994 45.4737 73.6179 45.3519 73.8711 45.2969C74.1122 45.2416 74.5615 44.9744 74.499 44.4931C74.4555 44.2642 74.1707 44.1026 73.9192 44.0736C73.4885 44.0051 72.9928 44.1873 72.6665 44.3009C72.3642 44.415 71.9487 44.7909 71.6506 44.689C71.6824 44.2935 71.7613 43.947 71.6373 43.5365ZM11.8233 60.9122C12.3848 61.0433 12.7257 60.7979 12.8076 60.2955C12.9581 59.3622 12.9004 58.0288 12.9603 56.8178C13.0375 55.9431 13.1661 54.9015 13.2563 53.9791C13.342 53.2846 13.632 51.9701 13.022 51.862C12.8312 51.7983 12.4339 51.8624 12.3468 52.0168C12.0588 52.6232 12.3012 54.3323 11.7897 54.7063C11.0218 54.6912 10.3481 54.7739 9.7298 55.0857C9.17175 55.3868 8.77907 55.8231 8.49247 56.3576C8.25623 56.773 8.11053 57.4663 8.26619 58.0935C8.42232 58.6967 9.0466 59.2971 9.56882 59.5954C10.1388 59.9067 10.7754 59.8833 11.4324 60.0403C11.5834 60.2953 11.5499 60.7747 11.8233 60.9122ZM11.6753 57.4646C11.6319 57.8358 11.6288 58.6039 11.5036 58.8655C10.9371 58.9863 10.0691 58.5731 9.73014 58.1103C9.1694 57.3311 9.78048 56.167 10.67 56.1005C11.2228 56.0634 11.5136 55.9251 11.6891 56.1566C11.7681 56.4102 11.7188 57.0814 11.6753 57.4646ZM15.2396 52.998C14.9143 53.0636 14.6195 53.4059 14.6484 53.7665C14.7062 54.4878 15.9939 54.3091 15.9964 53.577C15.9929 53.1449 15.6612 52.9223 15.2396 52.998ZM15.0914 55.0355C14.5146 55.0721 14.3216 55.7284 14.2256 56.3387C14.114 57.1286 13.9889 57.9903 13.8766 58.8163C13.8074 59.283 13.69 59.7608 13.8899 59.9687C14.1719 60.2744 14.9205 60.0491 15.0951 59.7165C15.22 59.4669 15.1973 58.7943 15.2298 58.3629C15.281 57.5957 15.4144 56.9142 15.5599 56.233C15.638 55.9224 15.7519 55.6246 15.719 55.4679C15.6652 55.1548 15.2599 55.0148 15.0914 55.0355ZM18.5377 54.4793C17.8884 54.5385 17.2845 54.7307 16.8422 55.2501C16.6699 55.4627 16.5995 55.9894 16.6174 56.3018C16.6434 56.8064 17.1395 57.2123 17.5415 57.5203C17.8727 57.7669 18.6803 58.2029 18.5981 58.7174C17.8588 59.687 17.4094 58.7419 16.7561 59.0051C16.6352 59.0507 16.4886 59.1798 16.4625 59.2873C16.3424 59.8971 16.5073 60.0564 17.5226 60.3045C17.9526 60.409 18.6144 60.326 18.9548 60.1047C19.4289 59.802 19.8227 59.3056 19.8598 58.6462C19.9013 57.7589 19.1554 57.2401 18.671 56.8464C18.5647 56.7603 17.947 56.4361 17.9776 56.1006C18.0092 55.7172 18.3952 55.6168 19.0515 55.8097C19.2894 55.9224 19.833 56.3533 20.0767 56.166C20.1981 56.0964 20.4668 55.8617 20.437 55.549C20.3973 55.1281 19.9353 54.819 19.4591 54.6175C19.2211 54.5168 18.5979 54.4685 18.5377 54.4793ZM25.4856 59.1653C25.2231 58.476 24.6874 58.8615 24.0016 58.944C23.0752 59.0577 22.5093 58.5425 22.3063 57.8783C22.1151 57.2264 22.8758 56.3893 23.7418 56.2983C24.0664 56.2687 24.388 56.3951 24.7973 56.3312C25.1222 56.2896 25.43 55.8996 25.3312 55.4295C25.2315 55.0075 24.0082 54.9593 23.6234 54.9997C22.5894 55.0874 21.738 55.6587 21.2759 56.5738C21.0619 57.0736 20.9151 57.8269 21.0721 58.3821C21.4703 59.4942 22.3098 60.1348 23.5451 60.1832C24.6604 60.2292 25.7139 59.7579 25.4856 59.1653ZM28.3776 54.6735C27.9924 54.7259 27.7979 54.8541 27.5057 55.0643C27.0427 55.4153 26.9801 55.5461 26.6956 55.9725C26.1523 56.742 25.9931 58.1191 26.6117 59.0075C26.9526 59.3743 27.6409 59.7719 28.2516 59.844C28.9818 59.9424 29.5377 59.7493 29.9995 59.4584C30.8027 58.8981 31.3728 57.9852 31.2595 57.0348C31.2418 55.4981 30.1234 54.3958 28.3776 54.6735ZM27.5124 57.765C27.4073 57.0068 28.0052 55.9023 28.6555 55.7951C29.4984 55.6557 30.2005 56.5698 29.9647 57.5733C29.846 58.1111 29.3211 58.5568 28.9471 58.6575C28.1512 58.8458 27.5968 58.3548 27.5124 57.765ZM33.7581 58.6323C33.6859 58.0308 33.5007 57.079 33.3683 56.4882C33.3022 56.1869 33.195 55.5366 33.0426 55.3536C32.7728 55.0362 32.1694 55.2043 31.9722 55.4645C31.9228 55.5355 31.7976 55.7971 31.9107 56.1474C31.9704 56.7727 32.5866 58.3932 32.8412 59.4784C32.9508 60.0087 33.014 60.454 33.3843 60.5453C33.9926 60.7374 34.4531 59.9063 34.7136 59.4793C35.57 58.044 35.9072 57.3785 36.3416 56.6549C36.5776 56.2515 36.9314 55.9584 36.7621 55.415C36.6391 54.9564 36.1494 54.8388 35.7965 55.0839C35.3829 55.3637 35.2393 55.949 34.9529 56.4715C34.5449 57.0756 34.1793 57.9685 33.7581 58.6323ZM38.5419 58.8587C38.8317 58.7684 39.3265 58.6342 39.7005 58.5335C40.2555 58.3884 40.5348 58.2259 41.0784 58.0446C41.4045 57.943 41.6405 57.5396 41.6229 57.2152C41.6272 56.9992 41.4687 56.516 41.3875 56.3704C40.8955 55.1484 39.9186 54.7811 38.7348 55.1658C38.252 55.3003 37.7029 55.7576 37.4043 56.2918C37.01 56.8121 36.8631 57.5654 37.0707 58.6017C37.3752 59.5919 37.6803 59.946 38.6443 60.361C39.2498 60.6971 40.4286 60.5643 41.0493 60.1324C41.2565 59.9685 41.3239 59.5977 41.0654 59.3166C40.6149 59.0317 40.2662 59.6729 39.4656 59.4891C38.9399 59.3707 38.6301 59.2566 38.5419 58.8587ZM38.5866 56.5912C39.3545 55.9942 40.0735 56.0564 40.3674 56.9744C40.3034 57.1771 39.9514 57.3742 39.6743 57.4288C39.2527 57.5045 38.5161 57.73 38.3009 57.6898C38.2092 57.4719 38.2697 56.837 38.5866 56.5912ZM43.9021 54.9917C43.7965 54.8696 43.606 54.7938 43.4258 54.8023C42.7774 54.8135 42.7929 55.2459 42.6674 56.1316C42.5402 57.1013 42.4723 58.7202 42.3689 59.7024C42.3279 59.9536 42.2745 60.2286 42.3197 60.3735C42.3768 60.5187 42.6259 60.6676 42.8056 60.6832C43.2611 60.7162 43.4895 60.6967 43.6175 60.2911C43.7714 59.7901 43.7862 58.4341 43.8333 57.8709C43.8373 57.6669 44.6641 57.1311 45.1588 56.9969C45.3642 56.9289 45.8827 56.8071 46.1358 56.7521C46.377 56.6968 46.8263 56.4297 46.7638 55.9483C46.7203 55.7194 46.4354 55.5578 46.184 55.5288C45.7532 55.4603 45.2575 55.6426 44.9312 55.7561C44.6289 55.8702 44.2134 56.2461 43.9154 56.1442C43.9472 55.7487 44.026 55.4022 43.9021 54.9917ZM51.4997 56.5218C51.9429 56.5666 52.4574 56.0366 53.3601 55.9104C53.6353 55.9519 54.031 56.5838 53.723 56.9858C53.5263 57.2219 52.4959 57.1296 51.9045 57.298C51.5664 57.3993 51.1415 57.643 50.9702 57.8077C50.7011 58.0664 50.3808 58.4802 50.5003 59.1186C50.5308 59.3953 50.7658 59.652 50.978 59.8482C51.4948 60.4225 52.0304 60.6491 52.7328 60.939C52.9351 61.027 53.4254 61.1207 53.63 61.0887C53.9187 61.0584 54.2391 60.6327 54.3279 60.3944C54.5326 59.7503 54.6656 59.0928 54.8113 58.3995C54.9194 57.7895 55.1164 56.9293 54.9995 56.1588C54.9159 55.533 54.5193 54.9491 54.0905 54.7846C53.3379 54.6017 52.7451 54.8421 51.9816 55.2111C51.5944 55.3715 51.134 55.5904 51.1845 56.0715C51.2162 56.2882 51.2734 56.4334 51.4997 56.5218ZM52.7741 58.2393C53.0023 58.2318 53.4594 58.1808 53.6127 58.3159C53.6044 58.7358 53.5519 59.5749 53.1781 59.6636C52.6038 59.5682 51.721 59.2987 51.7227 58.6026C51.9074 58.3662 52.3177 58.2543 52.7741 58.2393ZM62.1657 55.472C62.0498 54.6536 62.2722 54.3339 62.3687 53.6997C62.485 53.2819 62.5631 52.9714 61.9625 52.9955C61.0138 53.0248 61.0941 53.8185 60.9724 54.5123C60.919 54.7873 60.8448 55.506 60.638 55.6459C60.4434 55.7741 59.6158 55.7458 59.3627 55.8008C59.1208 55.892 58.9122 56.128 58.8717 56.3552C58.8076 56.558 58.8843 56.9316 59.1336 57.0685C59.4783 57.2433 60.3254 56.888 60.5832 57.2051C60.5215 57.9 60.4986 58.4517 60.4176 58.9062C60.4014 59.1219 60.2394 60.0309 60.1992 60.2461C60.1714 60.4376 59.8871 61.4642 59.9553 61.6576C60.036 61.8272 60.4178 61.9428 60.6824 61.912C61.284 61.8399 61.3822 60.5095 61.4742 60.1033C61.515 59.864 61.6532 58.9426 61.6819 58.7031C61.7236 58.4159 61.8343 57.0618 62.066 56.8743C62.2858 56.6866 63.2679 56.79 63.6437 56.6054C63.8982 56.4784 64.049 56.1333 63.9835 55.8079C63.8746 55.2417 62.4482 55.7536 62.1657 55.472ZM66.058 55.4288C65.9523 55.3067 65.7618 55.2309 65.5816 55.2393C64.9333 55.2505 64.9487 55.6829 64.8232 56.5686C64.6961 57.5383 64.6281 59.1573 64.5248 60.1394C64.4838 60.3907 64.4304 60.6657 64.4755 60.8106C64.5327 60.9558 64.7818 61.1047 64.9615 61.1202C65.4169 61.1532 65.6454 61.1337 65.7734 60.7282C65.9273 60.2271 65.942 58.8711 65.9892 58.308C65.9932 58.104 66.8199 57.5682 67.3147 57.4339C67.52 57.366 68.0385 57.2442 68.2917 57.1892C68.5328 57.1339 68.9822 56.8667 68.9196 56.3854C68.8762 56.1565 68.5913 55.9948 68.3398 55.9659C67.9091 55.8974 67.4134 56.0796 67.0871 56.1932C66.7848 56.3073 66.3693 56.6831 66.0712 56.5812C66.103 56.1858 66.1819 55.8393 66.058 55.4288ZM70.6919 59.4929C70.9817 59.4026 71.4765 59.2684 71.8505 59.1677C72.4055 59.0227 72.6848 58.8601 73.2284 58.6788C73.5545 58.5772 73.7905 58.1738 73.7729 57.8494C73.7772 57.6334 73.6187 57.1502 73.5375 57.0046C73.0455 55.7826 72.0686 55.4153 70.8848 55.8C70.402 55.9345 69.8529 56.3918 69.5543 56.926C69.16 57.4463 69.0131 58.1996 69.2207 59.2359C69.5252 60.2261 69.8303 60.5802 70.7943 60.9953C71.3998 61.3313 72.5786 61.1985 73.1993 60.7666C73.4065 60.6027 73.4739 60.232 73.2153 59.9508C72.7649 59.6659 72.4162 60.3071 71.6156 60.1233C71.0899 60.0049 70.7801 59.8908 70.6919 59.4929ZM70.7366 57.2254C71.5045 56.6284 72.2235 56.6906 72.5174 57.6086C72.4534 57.8114 72.1014 58.0085 71.8243 58.063C71.4027 58.1387 70.6661 58.3642 70.4509 58.324C70.3592 58.1061 70.4197 57.4712 70.7366 57.2254ZM76.0537 57.9784C75.9131 57.1955 76.3626 55.7041 75.3993 55.8651C74.8452 55.9622 74.8644 56.8147 74.8269 57.4981C74.7741 58.3492 74.6397 59.0787 74.5392 59.9169C74.4403 60.6711 74.2809 61.4481 75.1483 61.2852C75.4734 61.2316 75.8899 60.1956 76.101 59.8397C76.4728 59.2469 76.3886 59.2573 77.0041 58.4772C77.2506 58.146 77.4996 57.6949 77.8725 57.6542C77.9338 58.1955 77.8672 58.5303 77.7838 59.1047C77.6883 59.691 77.6157 60.3257 77.6401 60.9143C77.9075 61.3516 78.7272 61.1758 78.8912 60.7709C78.9418 60.6399 78.8995 60.351 78.9037 60.135C78.933 59.2594 79.2599 57.8976 79.2043 57.0684C79.1759 56.6837 78.9926 56.236 78.8503 56.1492C78.3886 55.828 77.9143 56.1427 77.5978 56.3645C77.1838 56.6684 76.8403 57.0457 76.5685 57.4364C76.4325 57.6378 76.2737 57.7787 76.0537 57.9784ZM83.5047 62.3262C84.0662 62.4573 84.4071 62.212 84.489 61.7095C84.6394 60.7763 84.5817 59.4429 84.6416 58.2318C84.7189 57.3572 84.8475 56.3155 84.9377 55.3931C85.0234 54.6987 85.3134 53.3841 84.7034 53.2761C84.5126 53.2123 84.1153 53.2765 84.0282 53.4308C83.7402 54.0372 83.9825 55.7463 83.471 56.1203C82.7032 56.1052 82.0294 56.1879 81.4112 56.4998C80.8531 56.8008 80.4604 57.2372 80.1738 57.7716C79.9376 58.187 79.7919 58.8803 79.9476 59.5075C80.1037 60.1107 80.728 60.7111 81.2502 61.0095C81.8202 61.3208 82.4567 61.2973 83.1138 61.4543C83.2648 61.7093 83.2313 62.1888 83.5047 62.3262ZM83.3566 58.8786C83.3133 59.2498 83.3101 60.0179 83.185 60.2795C82.6185 60.4003 81.7504 59.9871 81.4115 59.5244C80.8508 58.7452 81.4618 57.581 82.3513 57.5145C82.9042 57.4774 83.195 57.3391 83.3704 57.5706C83.4494 57.8242 83.4002 58.4954 83.3566 58.8786Z" fill="black"/>
<defs>
<clipPath id="clip0_2_412">
<rect width="28.3944" height="34.4457" fill="white" transform="translate(47.1777 36.1802) rotate(-104.644)"/>
</clipPath>
</defs>
</svg>
